<svg width="50" height="50" viewBox="0 0 50 50" fill="none" xmlns="http://www.w3.org/2000/svg">
<path d="M49.2045 24.6016C49.2045 30.0174 47.4174 35.2825 44.1205 39.5791C40.8236 43.8756 36.2012 46.9645 30.9701 48.3662C25.7389 49.7679 20.1914 49.4036 15.1879 47.3311C12.0081 46.0139 9.16192 44.0527 6.81384 41.5947L15.4232 36.1592C16.4911 37.0074 17.677 37.7105 18.9535 38.2393C21.9556 39.4828 25.2845 39.7014 28.4232 38.8604C31.5619 38.0193 34.3357 36.1658 36.3138 33.5879C38.2917 31.0101 39.3635 27.8517 39.3636 24.6025L49.2045 24.6016Z" fill="#1CE783"/>
<path d="M3.79848 37.7369C2.47511 35.6409 1.47876 33.3575 0.83853 30.9665L0.836127 30.9689C0.277973 28.8857 0.000106333 26.745 3.60177e-05 24.6021H24.5999L3.79848 37.7369Z" fill="#0D0D0D"/>
<path d="M18.2351 0.83802C23.4663 -0.563627 29.0139 -0.199331 34.0173 1.87318C37.1807 3.18352 40.0141 5.13116 42.3552 7.57142L33.739 13.0109C32.6823 12.1779 31.5111 11.4867 30.2517 10.965C27.2496 9.72145 23.9207 9.50285 20.782 10.3439C17.6432 11.1849 14.8695 13.0384 12.8914 15.6163C10.9133 18.1943 9.84155 21.3533 9.84155 24.6027H0.000732422C0.000732895 19.1869 1.78779 13.9218 5.08472 9.62513C8.38162 5.32869 13.004 2.23969 18.2351 0.83802Z" fill="#0D0D0D"/>
<path d="M45.4038 11.4673C46.7272 13.5634 47.7235 15.8468 48.3637 18.2377L48.3661 18.2353C48.9243 20.3186 49.2022 22.4592 49.2022 24.6021H24.6024L45.4038 11.4673Z" fill="#1CE783"/>
</svg>
