<svg width="225" height="50" viewBox="0 0 225 50" fill="none" xmlns="http://www.w3.org/2000/svg">
<path d="M220.326 19.2905H224.999V23.3273H220.326V31.1156C220.326 31.9176 220.549 32.5209 220.997 32.9222C221.445 33.3232 222.143 33.5242 223.086 33.5244C223.44 33.5244 223.771 33.4884 224.077 33.4177C224.384 33.3469 224.693 33.2644 224.999 33.17V37.2067C224.693 37.3719 224.255 37.5013 223.688 37.5957C223.146 37.69 222.531 37.7369 221.847 37.7369C219.535 37.7367 217.811 37.1836 216.678 36.0743C215.569 34.9414 215.016 33.2293 215.016 30.9398V23.3273H211.65V19.2905H215.016V15.7009C215.016 15.5044 215.114 15.3209 215.277 15.2121L220.323 11.8567L220.326 19.2905Z" fill="white"/>
<path d="M201.352 37.703C199.369 37.703 197.623 37.3135 196.112 36.5346C194.625 35.7321 193.457 34.6227 192.607 33.2064C191.781 31.7666 191.368 30.1143 191.368 28.2496C191.368 26.3849 191.781 24.7562 192.607 23.3636C193.457 21.971 194.625 20.8852 196.112 20.1063C197.623 19.3273 199.369 18.9379 201.352 18.9379C203.358 18.9379 205.105 19.3273 206.592 20.1063C208.103 20.8852 209.271 21.971 210.097 23.3636C210.924 24.7562 211.337 26.3849 211.337 28.2496C211.337 30.1143 210.912 31.7666 210.062 33.2064C209.236 34.6227 208.067 35.7321 206.557 36.5346C205.07 37.3135 203.335 37.703 201.352 37.703ZM201.352 33.5251C202.178 33.5251 202.922 33.3127 203.583 32.8878C204.267 32.4629 204.81 31.861 205.211 31.0821C205.613 30.2796 205.813 29.3236 205.813 28.2142C205.813 26.5855 205.377 25.3345 204.503 24.4612C203.654 23.5642 202.603 23.1158 201.352 23.1158C200.101 23.1158 199.039 23.5642 198.166 24.4612C197.316 25.3581 196.891 26.6091 196.891 28.2142C196.891 29.3236 197.092 30.2796 197.493 31.0821C197.894 31.861 198.425 32.4629 199.086 32.8878C199.771 33.3127 200.526 33.5251 201.352 33.5251Z" fill="white"/>
<path d="M188.905 37.3479H183.595V15.6895C183.595 15.4929 183.693 15.3094 183.857 15.2006L188.888 11.8567H188.905V37.3479Z" fill="white"/>
<path d="M179.718 37.3491H174.408V19.2918H179.718V37.3491Z" fill="white"/>
<path d="M179.897 16.8859H174.229V15.9211C174.229 15.7246 174.327 15.5412 174.491 15.4324L179.897 11.8378V16.8859Z" fill="white"/>
<path d="M127.358 37.3479H122.048V15.6981C122.048 15.5015 122.146 15.3181 122.31 15.2093L127.352 11.8567H127.358V37.3479Z" fill="white"/>
<path d="M91.1724 37.703C89.2841 37.703 87.62 37.3017 86.1802 36.4992C84.7403 35.6967 83.6073 34.5873 82.7812 33.171C81.9787 31.7548 81.5774 30.1379 81.5774 28.3204C81.5774 26.5029 81.9787 24.8861 82.7812 23.4698C83.6073 22.0536 84.7403 20.9442 86.1802 20.1417C87.62 19.3391 89.2841 18.9379 91.1724 18.9379C92.7539 18.9379 94.1701 19.2329 95.4211 19.823C96.6957 20.3895 97.7343 21.1802 98.5368 22.1952C99.363 23.2102 99.894 24.4022 100.13 25.7712H94.9962C94.7366 24.8979 94.2645 24.2369 93.58 23.7885C92.9191 23.34 92.1402 23.1158 91.2432 23.1158C90.3935 23.1158 89.6499 23.3282 89.0126 23.7531C88.3989 24.1779 87.9268 24.7798 87.5964 25.5588C87.2659 26.3377 87.1007 27.2583 87.1007 28.3204C87.1007 29.3826 87.2659 30.3032 87.5964 31.0821C87.9268 31.861 88.3989 32.4629 89.0126 32.8878C89.6499 33.3127 90.3935 33.5251 91.2432 33.5251C92.1402 33.5251 92.9191 33.3009 93.58 32.8524C94.2645 32.4039 94.7366 31.743 94.9962 30.8697H100.13C99.894 32.2387 99.363 33.4307 98.5368 34.4456C97.7343 35.4606 96.6957 36.2631 95.4211 36.8532C94.1701 37.4197 92.7539 37.703 91.1724 37.703Z" fill="white"/>
<path d="M70.4462 37.6676C67.1417 37.6676 64.498 36.9359 62.5153 35.4725C60.5326 33.9854 59.376 31.8965 59.0455 29.2056H64.2856C64.4508 30.5747 65.1117 31.6604 66.2683 32.463C67.4249 33.2419 68.9002 33.6314 70.6941 33.6314C72.1575 33.6314 73.2787 33.3717 74.0576 32.8524C74.8602 32.3332 75.2614 31.6368 75.2614 30.7635C75.2614 29.9374 75.0254 29.2764 74.5533 28.7808C74.0812 28.2615 73.2669 27.8484 72.1103 27.5416L67.3659 26.2315C64.9347 25.547 63.1526 24.6147 62.0196 23.4345C60.9102 22.2307 60.3556 20.7318 60.3556 18.9379C60.3556 17.4037 60.745 16.0819 61.5239 14.9725C62.3265 13.8395 63.4477 12.9779 64.8875 12.3878C66.3273 11.7741 68.015 11.4673 69.9505 11.4673C72.9246 11.4673 75.2968 12.1754 77.0671 13.5916C78.8374 14.9843 79.8406 16.8372 80.0766 19.1504H74.8366C74.6005 17.8994 74.0222 16.9788 73.1017 16.3887C72.2047 15.7986 71.0481 15.5036 69.6319 15.5036C68.4045 15.5036 67.4249 15.7396 66.6932 16.2117C65.9615 16.6838 65.5956 17.3211 65.5956 18.1236C65.5956 18.7373 65.7963 19.3038 66.1975 19.8231C66.5988 20.3188 67.4367 20.7436 68.7113 21.0977L73.4557 22.4077C75.9577 23.0922 77.7516 24.0364 78.8374 25.2402C79.9468 26.4204 80.5015 27.9192 80.5015 29.7367C80.5015 32.2859 79.6164 34.2451 77.8461 35.6141C76.0758 36.9831 73.6092 37.6676 70.4462 37.6676Z" fill="white"/>
<path fill-rule="evenodd" clip-rule="evenodd" d="M110.32 18.9373C112.915 18.9374 114.898 19.5156 116.267 20.6718C117.636 21.8284 118.321 23.4936 118.321 25.6652V33.6321C118.321 34.2216 118.357 34.8227 118.428 35.4358C118.522 36.0259 118.663 36.6645 118.851 37.349H113.541C113.399 36.8297 113.292 36.2737 113.221 35.6836C113.19 35.2912 113.174 34.857 113.164 34.3812C112.661 35.3591 111.986 36.1272 111.132 36.6777C110.07 37.3618 108.771 37.7034 107.237 37.7034C105.444 37.7032 104.017 37.2542 102.955 36.3578C101.893 35.4373 101.362 34.2207 101.362 32.7101C101.362 31.0346 101.987 29.6881 103.237 28.6733C104.512 27.6351 106.282 26.9632 108.548 26.6564L113.008 26.0253V25.0976C113.008 24.3663 112.76 23.8015 112.265 23.4004C111.793 22.9756 111.085 22.7608 110.141 22.7608C109.245 22.7608 108.526 22.9154 107.983 23.2218C107.464 23.5287 107.12 23.9773 106.954 24.5674H101.892C102.128 22.939 102.965 21.5927 104.404 20.5306C105.844 19.4685 107.818 18.9373 110.32 18.9373ZM109.432 29.6674C108.489 29.809 107.792 30.0678 107.343 30.4453C106.895 30.8229 106.672 31.3436 106.672 32.0041C106.672 32.5932 106.885 33.0402 107.309 33.3468C107.734 33.6537 108.301 33.8078 109.009 33.8078C110.118 33.8078 111.062 33.5133 111.841 32.9233C112.62 32.3098 113.008 31.6019 113.008 30.7997V29.117L109.432 29.6674Z" fill="white"/>
<path fill-rule="evenodd" clip-rule="evenodd" d="M139.557 18.9373C141.421 18.9373 143.04 19.3143 144.409 20.0696C145.778 20.8249 146.84 21.8764 147.596 23.2218C148.351 24.5672 148.728 26.15 148.728 27.9674C148.728 28.3443 148.717 28.6978 148.693 29.0277C148.67 29.3346 148.634 29.6319 148.587 29.9152H135.197C135.353 31.0249 135.694 31.8987 136.229 32.5343C137.008 33.431 138.164 33.8797 139.698 33.8799C140.548 33.8799 141.28 33.7366 141.893 33.4534C142.507 33.1702 142.967 32.7104 143.274 32.0733H148.267C147.677 33.82 146.661 35.2017 145.221 36.2166C143.806 37.2075 141.977 37.7033 139.735 37.7034C137.729 37.7034 135.981 37.3125 134.494 36.5336C133.007 35.7311 131.851 34.6217 131.025 33.2056C130.223 31.7898 129.821 30.1622 129.821 28.3218C129.821 26.4571 130.223 24.8276 131.025 23.435C131.851 22.0188 132.996 20.9206 134.46 20.1417C135.923 19.3394 137.622 18.9373 139.557 18.9373ZM139.488 22.7608C138.095 22.7608 137.008 23.2343 136.229 24.1784C135.772 24.7492 135.456 25.4928 135.275 26.4086H143.354C143.263 25.2669 142.921 24.4049 142.32 23.824C141.636 23.1161 140.691 22.761 139.488 22.7608Z" fill="white"/>
<path fill-rule="evenodd" clip-rule="evenodd" d="M162.967 11.8578C164.856 11.8578 166.474 12.1881 167.819 12.849C169.188 13.5097 170.237 14.4298 170.969 15.6093C171.724 16.7895 172.104 18.1712 172.104 19.7527C172.104 21.3339 171.724 22.7269 170.969 23.9306C170.213 25.134 169.151 26.0786 167.782 26.763C166.437 27.4235 164.831 27.7541 162.967 27.7541H156.311V37.349H150.86V11.8578H162.967ZM156.311 23.5762H162.685C163.936 23.5762 164.905 23.2349 165.589 22.5504C166.297 21.8423 166.65 20.9202 166.65 19.7872C166.65 18.6548 166.297 17.7459 165.589 17.0615C164.905 16.377 163.936 16.0357 162.685 16.0357H156.311V23.5762Z" fill="white"/>
<path d="M49.2045 24.6016C49.2045 30.0174 47.4174 35.2825 44.1205 39.5791C40.8236 43.8756 36.2012 46.9645 30.9701 48.3662C25.7389 49.7679 20.1914 49.4036 15.1879 47.3311C12.0081 46.0139 9.16192 44.0527 6.81384 41.5947L15.4232 36.1592C16.4911 37.0074 17.677 37.7105 18.9535 38.2393C21.9556 39.4828 25.2845 39.7014 28.4232 38.8604C31.5619 38.0193 34.3357 36.1658 36.3138 33.5879C38.2917 31.0101 39.3635 27.8517 39.3636 24.6025L49.2045 24.6016Z" fill="white"/>
<path d="M3.79848 37.7369C2.47511 35.6409 1.47876 33.3575 0.83853 30.9665L0.836127 30.9689C0.277973 28.8857 0.000106333 26.745 3.60177e-05 24.6021H24.5999L3.79848 37.7369Z" fill="white"/>
<path d="M18.2351 0.83802C23.4663 -0.563627 29.0139 -0.199331 34.0173 1.87318C37.1807 3.18352 40.0141 5.13116 42.3552 7.57142L33.739 13.0109C32.6823 12.1779 31.5111 11.4867 30.2517 10.965C27.2496 9.72145 23.9207 9.50285 20.782 10.3439C17.6432 11.1849 14.8695 13.0384 12.8914 15.6163C10.9133 18.1943 9.84155 21.3533 9.84155 24.6027H0.000732422C0.000732895 19.1869 1.78779 13.9218 5.08472 9.62513C8.38162 5.32869 13.004 2.23969 18.2351 0.83802Z" fill="white"/>
<path d="M45.4038 11.4673C46.7272 13.5634 47.7235 15.8468 48.3637 18.2377L48.3661 18.2353C48.9243 20.3186 49.2022 22.4592 49.2022 24.6021H24.6024L45.4038 11.4673Z" fill="white"/>
</svg>
