<svg width="50" height="50" viewBox="0 0 50 50" fill="none" xmlns="http://www.w3.org/2000/svg">
<path d="M49.2043 24.6016C49.2043 30.0174 47.4173 35.2825 44.1204 39.5791C40.8235 43.8756 36.2011 46.9645 30.97 48.3662C25.7387 49.7679 20.1913 49.4036 15.1877 47.3311C12.0079 46.0139 9.1618 44.0527 6.81372 41.5947L15.4231 36.1592C16.491 37.0074 17.6768 37.7105 18.9534 38.2393C21.9555 39.4828 25.2843 39.7014 28.4231 38.8604C31.5618 38.0193 34.3356 36.1658 36.3137 33.5879C38.2916 31.0101 39.3634 27.8517 39.3635 24.6025L49.2043 24.6016Z" fill="#1CE783"/>
<path d="M3.79848 37.7369C2.47511 35.6409 1.47876 33.3575 0.83853 30.9665L0.836127 30.9689C0.277973 28.8857 0.000106333 26.745 3.60177e-05 24.6021H24.5999L3.79848 37.7369Z" fill="#1CE783"/>
<path d="M18.2349 0.83802C23.4661 -0.563627 29.0136 -0.199331 34.0171 1.87318C37.1805 3.18352 40.0139 5.13116 42.355 7.57142L33.7388 13.0109C32.6821 12.1779 31.5108 11.4867 30.2515 10.965C27.2493 9.72145 23.9205 9.50285 20.7817 10.3439C17.643 11.1849 14.8693 13.0384 12.8911 15.6163C10.9131 18.1943 9.84131 21.3533 9.84131 24.6027H0.000488281C0.000488755 19.1869 1.78755 13.9218 5.08447 9.62513C8.38138 5.32869 13.0038 2.23969 18.2349 0.83802Z" fill="#1CE783"/>
<path d="M45.4037 11.4673C46.727 13.5634 47.7234 15.8468 48.3636 18.2377L48.366 18.2353C48.9242 20.3186 49.202 22.4592 49.2021 24.6021H24.6023L45.4037 11.4673Z" fill="#1CE783"/>
</svg>
