<svg width="500" height="500" viewBox="0 0 500 500" fill="none" xmlns="http://www.w3.org/2000/svg">
<style>
    :root {
      --color: #0D0D0D;
    }

    @media (prefers-color-scheme: dark) {
      :root {
        --color: #ffffff;
      }
    }
  </style>
<path d="M38.5986 383.472C25.1509 362.172 15.0263 338.969 8.52051 314.673L8.49609 314.697C2.8243 293.528 0.000722465 271.775 0 250C5.45304e-06 194.966 18.1607 141.47 51.6631 97.8086C85.1654 54.1476 132.139 22.7614 185.297 8.51758C238.455 -5.72615 294.828 -2.03104 345.673 19.0293C377.823 32.3463 406.625 52.1385 430.416 76.9404L342.875 132.209C332.131 123.738 320.211 116.721 307.405 111.417C276.899 98.7808 243.075 96.5642 211.18 105.11C179.285 113.657 151.1 132.489 130.999 158.686C110.898 184.882 100.002 216.98 100.002 250H249.976L38.5986 383.472Z" fill="var(--color)"/>
<path d="M461.379 116.527C474.827 137.827 484.951 161.03 491.457 185.326L491.481 185.302C497.153 206.471 499.977 228.224 499.978 249.999L499.977 250H500.002C500.002 305.033 481.843 358.529 448.341 402.19C414.838 445.852 367.864 477.238 314.706 491.481C261.548 505.725 205.174 502.03 154.33 480.97C122.018 467.586 93.0889 447.661 69.2285 422.684L156.706 367.454C167.56 376.075 179.624 383.208 192.599 388.582C223.105 401.218 256.929 403.435 288.824 394.889C320.719 386.342 348.903 367.511 369.005 341.314C389.106 315.118 400.002 283.02 400.002 250L250.002 249.999L461.379 116.527Z" fill="#1CE783"/>
</svg>
