<svg width="24" height="24" viewBox="0 0 24 24" fill="none" xmlns="http://www.w3.org/2000/svg">
<path d="M10.9999 2.04932L11 4.06182C7.05371 4.5539 4 7.9203 4 11.9999C4 16.4182 7.58172 19.9999 12 19.9999C13.8487 19.9999 15.5509 19.3728 16.9055 18.3198L18.3289 19.7427C16.605 21.1535 14.4014 21.9999 12 21.9999C6.47715 21.9999 2 17.5227 2 11.9999C2 6.81462 5.94662 2.55109 10.9999 2.04932ZM21.9506 13C21.7509 15.011 20.9555 16.8467 19.7433 18.3282L18.3199 16.9054C19.1801 15.7989 19.756 14.4605 19.9381 12.9998L21.9506 13ZM13.0011 2.04942C17.725 2.51896 21.4815 6.27583 21.9506 10.9998L19.9381 10.9999C19.4869 7.38156 16.6192 4.51358 13.001 4.06194L13.0011 2.04942Z" fill="#15CB72"/>
<path d="M11.9999 11C10.6192 11 9.49988 9.8807 9.49988 8.5C9.49988 7.11929 10.6192 6 11.9999 6C13.3806 6 14.4999 7.11929 14.4999 8.5C14.4999 9.8807 13.3806 11 11.9999 11ZM7.52734 16.5C7.77607 14.25 9.6836 12.5 11.9999 12.5C14.3162 12.5 16.2237 14.25 16.4724 16.5H7.52734Z" fill="#15CB72"/>
<path d="M2 22L4 17L8 20L2 22Z" fill="#15CB72"/>
</svg>
