<svg width="12" height="12" viewBox="0 0 12 12" fill="none" xmlns="http://www.w3.org/2000/svg">
<path d="M1.99981 10V7C1.99981 5.93913 2.42124 4.92172 3.17138 4.17157C3.92153 3.42143 4.93894 3 5.99981 3C7.06067 3 8.07809 3.42143 8.82824 4.17157C9.57838 4.92172 9.99981 5.93913 9.99981 7V10H10.4998V11H1.49981V10H1.99981ZM2.99981 10H8.99981V7C8.99981 6.20435 8.68374 5.44129 8.12113 4.87868C7.55852 4.31607 6.79546 4 5.99981 4C5.20416 4 4.4411 4.31607 3.87849 4.87868C3.31588 5.44129 2.99981 6.20435 2.99981 7V10ZM5.49981 1H6.49981V2.5H5.49981V1ZM9.88881 2.404L10.5958 3.111L9.53581 4.1715L8.82831 3.4645L9.88881 2.404ZM1.40381 3.111L2.11081 2.404L3.17131 3.464L2.46481 4.172L1.40381 3.111ZM3.49981 7C3.49981 6.33696 3.7632 5.70107 4.23204 5.23223C4.70088 4.76339 5.33677 4.5 5.99981 4.5V5.5C5.60198 5.5 5.22045 5.65804 4.93915 5.93934C4.65784 6.22064 4.49981 6.60218 4.49981 7H3.49981Z" fill="#1CE783"/>
</svg>
