<svg width="12" height="12" viewBox="0 0 12 12" fill="none" xmlns="http://www.w3.org/2000/svg">
<path d="M3.2275 9.5L1 11.25V2C1 1.86739 1.05268 1.74021 1.14645 1.64645C1.24021 1.55268 1.36739 1.5 1.5 1.5H10.5C10.6326 1.5 10.7598 1.55268 10.8536 1.64645C10.9473 1.74021 11 1.86739 11 2V9C11 9.13261 10.9473 9.25979 10.8536 9.35355C10.7598 9.44732 10.6326 9.5 10.5 9.5H3.2275ZM2 9.1925L2.8815 8.5H10V2.5H2V9.1925ZM6.009 7.35L4.3295 5.67C4.11852 5.45902 3.99999 5.17287 3.99999 4.8745C3.99999 4.72676 4.02909 4.58047 4.08563 4.44398C4.14217 4.30749 4.22503 4.18347 4.3295 4.079C4.43397 3.97453 4.55799 3.89167 4.69448 3.83513C4.83097 3.77859 4.97726 3.74949 5.125 3.74949C5.42337 3.74949 5.70952 3.86802 5.9205 4.079L6.009 4.1675L6.0975 4.079C6.20197 3.97453 6.32599 3.89167 6.46248 3.83513C6.59897 3.77859 6.74526 3.74949 6.893 3.74949C7.04074 3.74949 7.18703 3.77859 7.32352 3.83513C7.46001 3.89167 7.58403 3.97453 7.6885 4.079C7.79297 4.18347 7.87583 4.30749 7.93237 4.44398C7.98891 4.58047 8.01801 4.72676 8.01801 4.8745C8.01801 5.02224 7.98891 5.16853 7.93237 5.30502C7.87583 5.44151 7.79297 5.56553 7.6885 5.67L6.0085 7.3495L6.009 7.35Z" fill="#1CE783"/>
</svg>
