<svg width="12" height="12" viewBox="0 0 12 12" fill="none" xmlns="http://www.w3.org/2000/svg">
<path d="M1.77227 8.67012C1.50338 8.24421 1.30101 7.7798 1.17089 7.29398C1.08583 6.97642 1.03176 6.65232 1.01058 6.32637L1 6.00004C1 4.8994 1.3635 3.82962 2.03349 2.95642C2.70349 2.08326 3.64286 1.455 4.70592 1.17012C5.76894 0.885353 6.89626 0.959739 7.913 1.3809C8.55586 1.64719 9.13152 2.04302 9.60727 2.53894L7.85685 3.64408C7.6421 3.47478 7.404 3.33427 7.14805 3.22823C6.53799 2.97552 5.86131 2.93121 5.22348 3.10209C4.5856 3.27301 4.02155 3.64993 3.61953 4.17386C3.21764 4.69775 2.99944 5.33974 2.99944 6.00004H5.99982L1.77227 8.67012Z" fill="#1CE783"/>
<path d="M11 5.99997C11 7.10057 10.6367 8.17061 9.96672 9.04379C9.29671 9.91697 8.35718 10.5448 7.29409 10.8297C6.23104 11.1145 5.10362 11.0405 4.08682 10.6194C3.44067 10.3517 2.8624 9.95282 2.38523 9.45333L4.13443 8.3489C4.35146 8.52129 4.59275 8.66411 4.85217 8.77157C5.46224 9.02423 6.13872 9.06882 6.77654 8.89791C7.41431 8.72699 7.97788 8.35027 8.37987 7.82645C8.78185 7.30254 8.99993 6.66034 8.99996 5.99997L5.99982 6.00004L10.2273 3.33061C10.4962 3.75658 10.6987 4.22075 10.8288 4.70664L10.8294 4.70603C10.9428 5.12941 10.9991 5.56448 10.9991 5.99997H11Z" fill="#1CE783"/>
</svg>
