<svg width="54" height="24" viewBox="0 0 54 24" fill="none" xmlns="http://www.w3.org/2000/svg">
<path d="M16.418 15C16.838 16.4844 17.5584 17.8422 18.5146 19H13C10.7909 19 9 17.2091 9 15H16.418Z" fill="white"/>
<path d="M44 15C44 17.2091 42.2091 19 40 19H35.4854C36.4416 17.8422 37.162 16.4844 37.582 15H44Z" fill="white"/>
<path d="M16.1846 10C16.0654 10.6487 16 11.3168 16 12C16 12.6832 16.0654 13.3513 16.1846 14H8C5.79086 14 4 12.2091 4 10H16.1846Z" fill="white"/>
<path d="M49 10C49 12.2091 47.2091 14 45 14H37.8154C37.9346 13.3513 38 12.6832 38 12C38 11.3168 37.9346 10.6487 37.8154 10H49Z" fill="white"/>
<path d="M18.5146 5C17.5584 6.15783 16.838 7.51555 16.418 9H4C1.79086 9 0 7.20914 0 5H18.5146Z" fill="white"/>
<path d="M53 5C53 7.20914 51.2091 9 49 9H37.582C37.162 7.51555 36.4416 6.15783 35.4854 5H53Z" fill="white"/>
<path d="M38 12C38 5.92487 33.0751 1 27 1C20.9249 1 16 5.92487 16 12C16 18.0751 20.9249 23 27 23C33.0751 23 38 18.0751 38 12ZM39 12C39 18.6274 33.6274 24 27 24C20.3726 24 15 18.6274 15 12C15 5.37258 20.3726 0 27 0C33.6274 0 39 5.37258 39 12Z" fill="white"/>
<path d="M20.2354 16.27C19.8051 15.5884 19.4806 14.8462 19.2725 14.0688L19.2715 14.0698C19.09 13.3924 19 12.6962 19 11.9995H19.002C19.002 10.2384 19.5832 8.52647 20.6553 7.12933C21.7272 5.73242 23.2299 4.72775 24.9307 4.27191C26.6317 3.81612 28.4365 3.9349 30.0635 4.60883C31.0921 5.03493 32.0132 5.66887 32.7744 6.46234L29.9727 8.2309C29.629 7.95997 29.2485 7.73456 28.8389 7.56488C27.8627 7.16054 26.7804 7.09027 25.7598 7.36371C24.7391 7.63719 23.8366 8.2393 23.1934 9.07758C22.5503 9.91581 22.2012 10.9429 22.2012 11.9995H26.999L20.2354 16.27Z" fill="white"/>
<path d="M35.0008 11.9999C35.0008 13.7609 34.4195 15.4729 33.3475 16.87C32.2755 18.2671 30.7722 19.2716 29.0712 19.7274C27.3703 20.1832 25.5663 20.0648 23.9394 19.391C22.9055 18.9627 21.9803 18.3244 21.2168 17.5253L24.0156 15.7582C24.3629 16.034 24.7489 16.2625 25.164 16.4345C26.1401 16.8387 27.2225 16.9101 28.2431 16.6366C29.2635 16.3631 30.1653 15.7604 30.8085 14.9223C31.4517 14.084 31.8006 13.0565 31.8007 11.9999H27.0004L33.7645 7.729C34.1948 8.41055 34.5187 9.15322 34.7269 9.93064L34.7279 9.92966C34.9093 10.6071 34.9993 11.3032 34.9993 11.9999H35.0008Z" fill="white"/>
</svg>
