<svg width="28" height="28" viewBox="0 0 28 28" fill="none" xmlns="http://www.w3.org/2000/svg">
<rect width="28.0003" height="27.9996" rx="13.9998" fill="#F8FAF9"/>
<path d="M5.54395 19.3389C5.00613 18.487 4.60102 17.5587 4.34082 16.587L4.33984 16.5879C4.14141 15.8472 4.03062 15.0886 4.00586 14.3272L4 14C4 11.7987 4.72634 9.65855 6.06641 7.91215C7.40637 6.16593 9.28508 4.91063 11.4111 4.34086C13.5373 3.77116 15.7926 3.91855 17.8262 4.76078C19.112 5.29339 20.2633 6.08627 21.2148 7.07816L17.7139 9.28812C17.2843 8.94952 16.8078 8.66915 16.2959 8.45707C15.0757 7.95166 13.723 7.86334 12.4473 8.20512C11.1715 8.54696 10.0433 9.29985 9.23926 10.3477C8.43544 11.3955 8 12.6795 8 14H13.999L5.54395 19.3389Z" fill="#B8BDBB"/>
<path d="M24.0003 13.9998C24.0003 16.2009 23.2737 18.3409 21.9337 20.0873C20.5937 21.8336 18.7146 23.0892 16.5884 23.6589C14.4622 24.2286 12.2074 24.0807 10.1737 23.2384C8.88141 22.7031 7.72486 21.9053 6.77051 20.9063L10.269 18.6975C10.703 19.0423 11.1856 19.3279 11.7045 19.5428C12.9246 20.0481 14.2776 20.1373 15.5533 19.7955C16.8288 19.4537 17.956 18.7002 18.76 17.6526C19.564 16.6048 20.0001 15.3204 20.0002 13.9998H14L22.455 8.66113C22.9928 9.51306 23.3977 10.4414 23.6579 11.4131L23.6591 11.4119C23.886 12.2587 23.9985 13.1288 23.9985 13.9998H24.0003Z" fill="#B8BDBB"/>
</svg>
