<svg width="140" height="48" viewBox="0 0 140 48" fill="none" xmlns="http://www.w3.org/2000/svg">
<rect width="140" height="48" rx="24" fill="#E71C52"/>
<g clip-path="url(#clip0_280_5710)">
<path d="M19 28.6669L19 14.2019C19 13.9366 19.1054 13.6823 19.2929 13.4947C19.4804 13.3072 19.7348 13.2019 20 13.2019L36 13.2019C36.2652 13.2019 36.5196 13.3072 36.7071 13.4947C36.8946 13.6823 37 13.9366 37 14.2019L37 28.6668C37 28.8314 36.9594 28.9935 36.8818 29.1386C36.8042 29.2838 36.6919 29.4075 36.555 29.4988L28.555 34.8318C28.3907 34.9415 28.1975 35 28 35C27.8025 35 27.6093 34.9415 27.445 34.8318L19.445 29.4989C19.3081 29.4075 19.1958 29.2838 19.1182 29.1386C19.0406 28.9935 19 28.8314 19 28.6669ZM21 28.1319L28 32.7978L35 28.1318L35 15.2019L21 15.2019L21 28.1319ZM26.586 22.2018L23.757 19.3738L25.172 17.9589L28 20.7878L30.828 17.9589L32.243 19.3738L29.414 22.2018L32.243 25.0298L30.828 26.4448L28 23.6158L25.172 26.4448L23.757 25.0298L26.586 22.2018Z" fill="#F8FAF9"/>
</g>
<path d="M47.24 31V16.6H49.84V31H47.24ZM56.66 31V16.6H59.26V31H56.66ZM48.48 22.48H57.84V24.52H48.48V22.48ZM67.9922 31C67.9255 30.7333 67.8722 30.44 67.8322 30.12C67.8055 29.8 67.7922 29.4133 67.7922 28.96H67.7122V24.12C67.7122 23.5867 67.5589 23.1867 67.2522 22.92C66.9589 22.64 66.5055 22.5 65.8922 22.5C65.2922 22.5 64.8122 22.6133 64.4522 22.84C64.1055 23.0533 63.8922 23.3667 63.8122 23.78H61.3922C61.4989 22.8333 61.9522 22.0667 62.7522 21.48C63.5522 20.8933 64.6255 20.6 65.9722 20.6C67.3722 20.6 68.4322 20.92 69.1522 21.56C69.8722 22.1867 70.2322 23.1133 70.2322 24.34V28.96C70.2322 29.28 70.2522 29.6067 70.2922 29.94C70.3455 30.2733 70.4189 30.6267 70.5122 31H67.9922ZM64.4522 31.2C63.4255 31.2 62.6055 30.9467 61.9922 30.44C61.3922 29.92 61.0922 29.2267 61.0922 28.36C61.0922 27.4267 61.4322 26.6867 62.1122 26.14C62.7922 25.5933 63.7522 25.2267 64.9922 25.04L68.1722 24.56V26.16L65.4122 26.58C64.8122 26.6733 64.3589 26.84 64.0522 27.08C63.7589 27.32 63.6122 27.6533 63.6122 28.08C63.6122 28.4667 63.7522 28.7667 64.0322 28.98C64.3122 29.18 64.6989 29.28 65.1922 29.28C65.9122 29.28 66.5122 29.1 66.9922 28.74C67.4722 28.38 67.7122 27.94 67.7122 27.42L67.9922 28.96C67.7255 29.6933 67.2855 30.2533 66.6722 30.64C66.0722 31.0133 65.3322 31.2 64.4522 31.2ZM72.5845 31V20.8H75.0445V23.26H75.1045V31H72.5845ZM75.1045 25.68L74.8445 23.26C75.0845 22.3933 75.4912 21.7333 76.0645 21.28C76.6379 20.8267 77.3245 20.6 78.1245 20.6C78.4045 20.6 78.6045 20.6267 78.7245 20.68V23.06C78.6579 23.0333 78.5645 23.02 78.4445 23.02C78.3245 23.0067 78.1779 23 78.0045 23C77.0312 23 76.3045 23.2133 75.8245 23.64C75.3445 24.0667 75.1045 24.7467 75.1045 25.68ZM87.2231 31V28.7L87.4231 28.74C87.2498 29.4867 86.8298 30.0867 86.1631 30.54C85.4965 30.98 84.7031 31.2 83.7831 31.2C82.8498 31.2 82.0365 30.9867 81.3431 30.56C80.6631 30.12 80.1365 29.5067 79.7631 28.72C79.3898 27.9333 79.2031 27.0067 79.2031 25.94C79.2031 24.86 79.3965 23.92 79.7831 23.12C80.1698 22.32 80.7098 21.7 81.4031 21.26C82.1098 20.82 82.9298 20.6 83.8631 20.6C84.8231 20.6 85.6165 20.8333 86.2431 21.3C86.8698 21.7533 87.2565 22.3867 87.4031 23.2L87.1431 23.22V16.6H89.6831V31H87.2231ZM84.5231 29.14C85.3365 29.14 85.9831 28.86 86.4631 28.3C86.9565 27.7267 87.2031 26.9267 87.2031 25.9C87.2031 24.8733 86.9565 24.08 86.4631 23.52C85.9698 22.96 85.3165 22.68 84.5031 22.68C83.7031 22.68 83.0565 22.9667 82.5631 23.54C82.0698 24.1 81.8231 24.8933 81.8231 25.92C81.8231 26.9467 82.0698 27.74 82.5631 28.3C83.0565 28.86 83.7098 29.14 84.5231 29.14ZM95.7322 31V16.6H98.3322V31H95.7322ZM97.6122 23.52L104.432 16.6H107.932L100.832 23.52H97.6122ZM104.752 31L97.5722 23.52H100.832L108.332 31H104.752ZM109.48 31V20.8H112V31H109.48ZM109.36 19.12V16.34H112.1V19.12H109.36ZM114.475 31V16.6H116.995V31H114.475ZM119.47 31V16.6H121.99V31H119.47Z" fill="#F8FAF9"/>
<defs>
<clipPath id="clip0_280_5710">
<rect width="24" height="24" fill="white" transform="translate(16 12)"/>
</clipPath>
</defs>
</svg>
