<svg width="144" height="48" viewBox="0 0 144 48" fill="none" xmlns="http://www.w3.org/2000/svg">
<rect width="144" height="48" rx="24" fill="#926DF9"/>
<g clip-path="url(#clip0_280_5686)">
<path d="M29 15V22.267L35.294 18.634L36.294 20.366L30.001 23.999L36.294 27.634L35.294 29.366L29 25.732V33H27V25.732L20.706 29.366L19.706 27.634L25.999 24L19.706 20.366L20.706 18.634L27 22.267V15H29Z" fill="#F8FAF9"/>
</g>
<path d="M47.24 31V16.6H49.84V31H47.24ZM48.48 31V28.94H56.92V31H48.48ZM62.6966 31.2C61.6166 31.2 60.6699 30.9733 59.8566 30.52C59.0566 30.0667 58.4299 29.44 57.9766 28.64C57.5366 27.84 57.3166 26.92 57.3166 25.88C57.3166 24.84 57.5366 23.9267 57.9766 23.14C58.4299 22.34 59.0566 21.72 59.8566 21.28C60.6566 20.8267 61.5899 20.6 62.6566 20.6C63.6699 20.6 64.5499 20.8133 65.2966 21.24C66.0432 21.6533 66.6232 22.24 67.0366 23C67.4499 23.76 67.6566 24.6467 67.6566 25.66C67.6566 25.8467 67.6499 26.02 67.6366 26.18C67.6232 26.34 67.6032 26.5 67.5766 26.66H58.8766V24.9H65.6366L65.1166 25.38C65.1166 24.42 64.8966 23.7 64.4566 23.22C64.0166 22.74 63.4032 22.5 62.6166 22.5C61.7632 22.5 61.0832 22.7933 60.5766 23.38C60.0832 23.9667 59.8366 24.8133 59.8366 25.92C59.8366 27.0133 60.0832 27.8533 60.5766 28.44C61.0832 29.0133 61.7966 29.3 62.7166 29.3C63.2499 29.3 63.7166 29.2 64.1166 29C64.5166 28.8 64.8099 28.4933 64.9966 28.08H67.3766C67.0432 29.04 66.4766 29.8 65.6766 30.36C64.8899 30.92 63.8966 31.2 62.6966 31.2ZM75.5461 31C75.4794 30.7333 75.4261 30.44 75.3861 30.12C75.3594 29.8 75.3461 29.4133 75.3461 28.96H75.2661V24.12C75.2661 23.5867 75.1128 23.1867 74.8061 22.92C74.5128 22.64 74.0594 22.5 73.4461 22.5C72.8461 22.5 72.3661 22.6133 72.0061 22.84C71.6594 23.0533 71.4461 23.3667 71.3661 23.78H68.9461C69.0528 22.8333 69.5061 22.0667 70.3061 21.48C71.1061 20.8933 72.1794 20.6 73.5261 20.6C74.9261 20.6 75.9861 20.92 76.7061 21.56C77.4261 22.1867 77.7861 23.1133 77.7861 24.34V28.96C77.7861 29.28 77.8061 29.6067 77.8461 29.94C77.8994 30.2733 77.9728 30.6267 78.0661 31H75.5461ZM72.0061 31.2C70.9794 31.2 70.1594 30.9467 69.5461 30.44C68.9461 29.92 68.6461 29.2267 68.6461 28.36C68.6461 27.4267 68.9861 26.6867 69.6661 26.14C70.3461 25.5933 71.3061 25.2267 72.5461 25.04L75.7261 24.56V26.16L72.9661 26.58C72.3661 26.6733 71.9128 26.84 71.6061 27.08C71.3128 27.32 71.1661 27.6533 71.1661 28.08C71.1661 28.4667 71.3061 28.7667 71.5861 28.98C71.8661 29.18 72.2528 29.28 72.7461 29.28C73.4661 29.28 74.0661 29.1 74.5461 28.74C75.0261 28.38 75.2661 27.94 75.2661 27.42L75.5461 28.96C75.2794 29.6933 74.8394 30.2533 74.2261 30.64C73.6261 31.0133 72.8861 31.2 72.0061 31.2ZM80.1384 31V20.8H82.5984V23.26H82.6584V31H80.1384ZM82.6584 25.68L82.3984 23.26C82.6384 22.3933 83.0451 21.7333 83.6184 21.28C84.1918 20.8267 84.8784 20.6 85.6784 20.6C85.9584 20.6 86.1584 20.6267 86.2784 20.68V23.06C86.2118 23.0333 86.1184 23.02 85.9984 23.02C85.8784 23.0067 85.7318 23 85.5584 23C84.5851 23 83.8584 23.2133 83.3784 23.64C82.8984 24.0667 82.6584 24.7467 82.6584 25.68ZM87.7314 31V20.8H90.1914V23.2H90.2514V31H87.7314ZM94.8914 31V24.56C94.8914 23.9333 94.7314 23.46 94.4114 23.14C94.0914 22.82 93.6247 22.66 93.0114 22.66C92.4781 22.66 91.9981 22.78 91.5714 23.02C91.1581 23.26 90.8314 23.5933 90.5914 24.02C90.3647 24.4467 90.2514 24.94 90.2514 25.5L89.9914 23.06C90.3381 22.3133 90.8447 21.72 91.5114 21.28C92.1781 20.8267 92.9781 20.6 93.9114 20.6C95.0181 20.6 95.8781 20.9133 96.4914 21.54C97.1181 22.1667 97.4314 23 97.4314 24.04V31H94.8914ZM99.6994 31V20.8H102.219V31H99.6994ZM99.5794 19.12V16.34H102.319V19.12H99.5794ZM104.695 31V20.8H107.155V23.2H107.215V31H104.695ZM111.855 31V24.56C111.855 23.9333 111.695 23.46 111.375 23.14C111.055 22.82 110.588 22.66 109.975 22.66C109.441 22.66 108.961 22.78 108.535 23.02C108.121 23.26 107.795 23.5933 107.555 24.02C107.328 24.4467 107.215 24.94 107.215 25.5L106.955 23.06C107.301 22.3133 107.808 21.72 108.475 21.28C109.141 20.8267 109.941 20.6 110.875 20.6C111.981 20.6 112.841 20.9133 113.455 21.54C114.081 22.1667 114.395 23 114.395 24.04V31H111.855ZM121.201 35.3C119.855 35.3 118.748 35.0067 117.881 34.42C117.028 33.8333 116.521 33.04 116.361 32.04H118.761C118.881 32.3867 119.141 32.6533 119.541 32.84C119.955 33.04 120.488 33.14 121.141 33.14C122.088 33.14 122.788 32.9267 123.241 32.5C123.695 32.0867 123.921 31.4533 123.921 30.6V28.4L124.101 28.44C123.941 29.1867 123.535 29.7867 122.881 30.24C122.228 30.68 121.428 30.9 120.481 30.9C119.575 30.9 118.781 30.6867 118.101 30.26C117.435 29.8333 116.915 29.24 116.541 28.48C116.168 27.7067 115.981 26.8067 115.981 25.78C115.981 24.74 116.175 23.8333 116.561 23.06C116.948 22.2867 117.488 21.6867 118.181 21.26C118.888 20.82 119.708 20.6 120.641 20.6C121.601 20.6 122.388 20.8333 123.001 21.3C123.628 21.7533 124.015 22.3867 124.161 23.2L124.001 23.22V20.8H126.461V30.58C126.461 32.0333 125.988 33.18 125.041 34.02C124.108 34.8733 122.828 35.3 121.201 35.3ZM121.301 28.9C122.115 28.9 122.761 28.6267 123.241 28.08C123.735 27.52 123.981 26.74 123.981 25.74C123.981 24.74 123.735 23.9667 123.241 23.42C122.748 22.8733 122.095 22.6 121.281 22.6C120.481 22.6 119.835 22.88 119.341 23.44C118.848 23.9867 118.601 24.76 118.601 25.76C118.601 26.76 118.848 27.5333 119.341 28.08C119.835 28.6267 120.488 28.9 121.301 28.9Z" fill="#F8FAF9"/>
<defs>
<clipPath id="clip0_280_5686">
<rect width="24" height="24" fill="white" transform="translate(16 12)"/>
</clipPath>
</defs>
</svg>
