<svg width="165" height="48" viewBox="0 0 165 48" fill="none" xmlns="http://www.w3.org/2000/svg">
<rect width="165" height="48" rx="24" fill="#1C7EE7"/>
<g clip-path="url(#clip0_280_5680)">
<path d="M28 14C33.523 14 38 18.477 38 24C38 29.523 33.523 34 28 34C22.477 34 18 29.523 18 24C18 18.477 22.477 14 28 14ZM28 16C25.8783 16 23.8434 16.8429 22.3431 18.3431C20.8429 19.8434 20 21.8783 20 24C20 26.1217 20.8429 28.1566 22.3431 29.6569C23.8434 31.1571 25.8783 32 28 32C30.1217 32 32.1566 31.1571 33.6569 29.6569C35.1571 28.1566 36 26.1217 36 24C36 21.8783 35.1571 19.8434 33.6569 18.3431C32.1566 16.8429 30.1217 16 28 16ZM28 19C29.0526 19.0004 30.0782 19.333 30.9307 19.9503C31.7832 20.5677 32.4192 21.4384 32.748 22.4383C33.0767 23.4382 33.0815 24.5164 32.7617 25.5192C32.4419 26.522 31.8137 27.3984 30.9668 28.0233C30.1198 28.6483 29.0972 28.99 28.0446 28.9998C26.9921 29.0096 25.9633 28.687 25.1049 28.0779C24.2464 27.4688 23.602 26.6043 23.2636 25.6076C22.9252 24.611 22.9099 23.5329 23.22 22.527C23.4539 23.0497 23.8603 23.4762 24.3711 23.7352C24.8818 23.9941 25.4661 24.0698 26.0259 23.9495C26.5858 23.8292 27.0874 23.5202 27.4468 23.0743C27.8061 22.6284 28.0014 22.0727 28 21.5C28.0001 21.0185 27.8612 20.5471 27.5999 20.1427C27.3386 19.7382 26.966 19.4178 26.527 19.22C26.993 19.077 27.487 19 28 19Z" fill="#F8FAF9"/>
</g>
<path d="M47.24 31V16.6H51.28L55.68 30.48H54.26L58.66 16.6H62.72V31H60.16V17.46H60.58L56.3 31H53.52L49.28 17.58H49.68V31H47.24ZM69.7487 31.2C68.6687 31.2 67.7154 30.9733 66.8887 30.52C66.0754 30.0667 65.4421 29.44 64.9887 28.64C64.5354 27.8267 64.3087 26.9 64.3087 25.86C64.3087 24.82 64.5354 23.9067 64.9887 23.12C65.4421 22.3333 66.0754 21.72 66.8887 21.28C67.7154 20.8267 68.6687 20.6 69.7487 20.6C70.8421 20.6 71.7954 20.8267 72.6087 21.28C73.4221 21.72 74.0554 22.3333 74.5087 23.12C74.9621 23.9067 75.1888 24.82 75.1888 25.86C75.1888 26.9 74.9554 27.8267 74.4887 28.64C74.0354 29.44 73.4021 30.0667 72.5887 30.52C71.7754 30.9733 70.8287 31.2 69.7487 31.2ZM69.7487 29.18C70.2821 29.18 70.7621 29.0467 71.1887 28.78C71.6154 28.5 71.9487 28.1133 72.1887 27.62C72.4287 27.1133 72.5487 26.52 72.5487 25.84C72.5487 24.84 72.2821 24.0533 71.7487 23.48C71.2287 22.9067 70.5621 22.62 69.7487 22.62C68.9354 22.62 68.2621 22.9067 67.7287 23.48C67.1954 24.0533 66.9287 24.84 66.9287 25.84C66.9287 26.52 67.0487 27.1133 67.2887 27.62C67.5421 28.1133 67.8754 28.5 68.2887 28.78C68.7154 29.0467 69.2021 29.18 69.7487 29.18ZM76.8423 31V20.8H79.3023V23.2H79.3623V31H76.8423ZM84.0023 31V24.56C84.0023 23.9333 83.8423 23.46 83.5223 23.14C83.2023 22.82 82.7357 22.66 82.1223 22.66C81.589 22.66 81.109 22.78 80.6823 23.02C80.269 23.26 79.9423 23.5933 79.7023 24.02C79.4757 24.4467 79.3623 24.94 79.3623 25.5L79.1023 23.06C79.449 22.3133 79.9557 21.72 80.6223 21.28C81.289 20.8267 82.089 20.6 83.0223 20.6C84.129 20.6 84.989 20.9133 85.6023 21.54C86.229 22.1667 86.5423 23 86.5423 24.04V31H84.0023ZM88.8103 31V20.8H91.3303V31H88.8103ZM88.6903 19.12V16.34H91.4303V19.12H88.6903ZM98.2684 31.2C97.0151 31.2 96.0884 30.9067 95.4884 30.32C94.9018 29.72 94.6084 28.8267 94.6084 27.64V18.48L97.1484 17.54V27.7C97.1484 28.1933 97.2818 28.56 97.5484 28.8C97.8151 29.04 98.2351 29.16 98.8084 29.16C99.0351 29.16 99.2351 29.1467 99.4084 29.12C99.5951 29.08 99.7684 29.0333 99.9284 28.98V30.94C99.7684 31.02 99.5418 31.08 99.2484 31.12C98.9551 31.1733 98.6284 31.2 98.2684 31.2ZM92.6484 22.78V20.8H99.9284V22.78H92.6484ZM105.941 31.2C104.861 31.2 103.908 30.9733 103.081 30.52C102.268 30.0667 101.634 29.44 101.181 28.64C100.728 27.8267 100.501 26.9 100.501 25.86C100.501 24.82 100.728 23.9067 101.181 23.12C101.634 22.3333 102.268 21.72 103.081 21.28C103.908 20.8267 104.861 20.6 105.941 20.6C107.034 20.6 107.988 20.8267 108.801 21.28C109.614 21.72 110.248 22.3333 110.701 23.12C111.154 23.9067 111.381 24.82 111.381 25.86C111.381 26.9 111.148 27.8267 110.681 28.64C110.228 29.44 109.594 30.0667 108.781 30.52C107.968 30.9733 107.021 31.2 105.941 31.2ZM105.941 29.18C106.474 29.18 106.954 29.0467 107.381 28.78C107.808 28.5 108.141 28.1133 108.381 27.62C108.621 27.1133 108.741 26.52 108.741 25.84C108.741 24.84 108.474 24.0533 107.941 23.48C107.421 22.9067 106.754 22.62 105.941 22.62C105.128 22.62 104.454 22.9067 103.921 23.48C103.388 24.0533 103.121 24.84 103.121 25.84C103.121 26.52 103.241 27.1133 103.481 27.62C103.734 28.1133 104.068 28.5 104.481 28.78C104.908 29.0467 105.394 29.18 105.941 29.18ZM113.035 31V20.8H115.495V23.26H115.555V31H113.035ZM115.555 25.68L115.295 23.26C115.535 22.3933 115.941 21.7333 116.515 21.28C117.088 20.8267 117.775 20.6 118.575 20.6C118.855 20.6 119.055 20.6267 119.175 20.68V23.06C119.108 23.0333 119.015 23.02 118.895 23.02C118.775 23.0067 118.628 23 118.455 23C117.481 23 116.755 23.2133 116.275 23.64C115.795 24.0667 115.555 24.7467 115.555 25.68ZM120.471 31V20.8H122.991V31H120.471ZM120.351 19.12V16.34H123.091V19.12H120.351ZM125.467 31V20.8H127.927V23.2H127.987V31H125.467ZM132.627 31V24.56C132.627 23.9333 132.467 23.46 132.147 23.14C131.827 22.82 131.36 22.66 130.747 22.66C130.213 22.66 129.733 22.78 129.307 23.02C128.893 23.26 128.567 23.5933 128.327 24.02C128.1 24.4467 127.987 24.94 127.987 25.5L127.727 23.06C128.073 22.3133 128.58 21.72 129.247 21.28C129.913 20.8267 130.713 20.6 131.647 20.6C132.753 20.6 133.613 20.9133 134.227 21.54C134.853 22.1667 135.167 23 135.167 24.04V31H132.627ZM141.973 35.3C140.626 35.3 139.52 35.0067 138.653 34.42C137.8 33.8333 137.293 33.04 137.133 32.04H139.533C139.653 32.3867 139.913 32.6533 140.313 32.84C140.726 33.04 141.26 33.14 141.913 33.14C142.86 33.14 143.56 32.9267 144.013 32.5C144.466 32.0867 144.693 31.4533 144.693 30.6V28.4L144.873 28.44C144.713 29.1867 144.306 29.7867 143.653 30.24C143 30.68 142.2 30.9 141.253 30.9C140.346 30.9 139.553 30.6867 138.873 30.26C138.206 29.8333 137.686 29.24 137.313 28.48C136.94 27.7067 136.753 26.8067 136.753 25.78C136.753 24.74 136.946 23.8333 137.333 23.06C137.72 22.2867 138.26 21.6867 138.953 21.26C139.66 20.82 140.48 20.6 141.413 20.6C142.373 20.6 143.16 20.8333 143.773 21.3C144.4 21.7533 144.786 22.3867 144.933 23.2L144.773 23.22V20.8H147.233V30.58C147.233 32.0333 146.76 33.18 145.813 34.02C144.88 34.8733 143.6 35.3 141.973 35.3ZM142.073 28.9C142.886 28.9 143.533 28.6267 144.013 28.08C144.506 27.52 144.753 26.74 144.753 25.74C144.753 24.74 144.506 23.9667 144.013 23.42C143.52 22.8733 142.866 22.6 142.053 22.6C141.253 22.6 140.606 22.88 140.113 23.44C139.62 23.9867 139.373 24.76 139.373 25.76C139.373 26.76 139.62 27.5333 140.113 28.08C140.606 28.6267 141.26 28.9 142.073 28.9Z" fill="#F8FAF9"/>
<defs>
<clipPath id="clip0_280_5680">
<rect width="24" height="24" fill="white" transform="translate(16 12)"/>
</clipPath>
</defs>
</svg>
