<svg width="131" height="48" viewBox="0 0 131 48" fill="none" xmlns="http://www.w3.org/2000/svg">
<rect width="131" height="48" rx="24" fill="#7A827F"/>
<g clip-path="url(#clip0_280_5692)">
<path d="M28 34C22.477 34 18 29.523 18 24C18 18.477 22.477 14 28 14C33.523 14 38 18.477 38 24C38 29.523 33.523 34 28 34ZM28 32C30.1217 32 32.1566 31.1571 33.6569 29.6569C35.1571 28.1566 36 26.1217 36 24C36 21.8783 35.1571 19.8434 33.6569 18.3431C32.1566 16.8429 30.1217 16 28 16C25.8783 16 23.8434 16.8429 22.3431 18.3431C20.8429 19.8434 20 21.8783 20 24C20 26.1217 20.8429 28.1566 22.3431 29.6569C23.8434 31.1571 25.8783 32 28 32ZM25 21H27V27H25V21ZM29 21H31V27H29V21Z" fill="#F8FAF9"/>
</g>
<path d="M47.24 31V16.6H53.7C54.7533 16.6 55.6533 16.78 56.4 17.14C57.16 17.5 57.74 18.0067 58.14 18.66C58.5533 19.3133 58.76 20.0867 58.76 20.98C58.76 21.86 58.5533 22.6333 58.14 23.3C57.7267 23.9667 57.1467 24.4867 56.4 24.86C55.6533 25.22 54.7533 25.4 53.7 25.4H49.26V23.36H53.58C54.4067 23.36 55.04 23.1467 55.48 22.72C55.9333 22.2933 56.16 21.7133 56.16 20.98C56.16 20.26 55.9333 19.6933 55.48 19.28C55.04 18.8667 54.4067 18.66 53.58 18.66H49.84V31H47.24ZM66.2148 31C66.1482 30.7333 66.0948 30.44 66.0548 30.12C66.0282 29.8 66.0148 29.4133 66.0148 28.96H65.9348V24.12C65.9348 23.5867 65.7815 23.1867 65.4748 22.92C65.1815 22.64 64.7282 22.5 64.1148 22.5C63.5148 22.5 63.0348 22.6133 62.6748 22.84C62.3282 23.0533 62.1148 23.3667 62.0348 23.78H59.6148C59.7215 22.8333 60.1748 22.0667 60.9748 21.48C61.7748 20.8933 62.8482 20.6 64.1948 20.6C65.5948 20.6 66.6548 20.92 67.3748 21.56C68.0948 22.1867 68.4548 23.1133 68.4548 24.34V28.96C68.4548 29.28 68.4748 29.6067 68.5148 29.94C68.5682 30.2733 68.6415 30.6267 68.7348 31H66.2148ZM62.6748 31.2C61.6482 31.2 60.8282 30.9467 60.2148 30.44C59.6148 29.92 59.3148 29.2267 59.3148 28.36C59.3148 27.4267 59.6548 26.6867 60.3348 26.14C61.0148 25.5933 61.9748 25.2267 63.2148 25.04L66.3948 24.56V26.16L63.6348 26.58C63.0348 26.6733 62.5815 26.84 62.2748 27.08C61.9815 27.32 61.8348 27.6533 61.8348 28.08C61.8348 28.4667 61.9748 28.7667 62.2548 28.98C62.5348 29.18 62.9215 29.28 63.4148 29.28C64.1348 29.28 64.7348 29.1 65.2148 28.74C65.6948 28.38 65.9348 27.94 65.9348 27.42L66.2148 28.96C65.9482 29.6933 65.5082 30.2533 64.8948 30.64C64.2948 31.0133 63.5548 31.2 62.6748 31.2ZM73.7556 31.2C73.049 31.2 72.4356 31.0533 71.9156 30.76C71.409 30.4533 71.0156 30.04 70.7356 29.52C70.469 29 70.3356 28.4133 70.3356 27.76V20.8H72.8556V27.24C72.8556 27.8667 73.009 28.34 73.3156 28.66C73.6356 28.98 74.0823 29.14 74.6556 29.14C75.1756 29.14 75.629 29.02 76.0156 28.78C76.4156 28.54 76.729 28.2067 76.9556 27.78C77.1956 27.34 77.3156 26.8467 77.3156 26.3L77.5756 28.74C77.2423 29.4867 76.7423 30.0867 76.0756 30.54C75.4223 30.98 74.649 31.2 73.7556 31.2ZM77.3956 31V28.6H77.3156V20.8H79.8556V31H77.3956ZM86.1283 31.2C84.7149 31.2 83.5883 30.9067 82.7483 30.32C81.9083 29.72 81.4483 28.8933 81.3683 27.84H83.6683C83.7349 28.36 83.9816 28.7533 84.4083 29.02C84.8349 29.2867 85.4083 29.42 86.1283 29.42C86.7816 29.42 87.2683 29.32 87.5883 29.12C87.9216 28.9067 88.0883 28.6067 88.0883 28.22C88.0883 27.94 87.9949 27.7133 87.8083 27.54C87.6216 27.3533 87.2683 27.2 86.7483 27.08L85.1083 26.7C83.9883 26.46 83.1549 26.0867 82.6083 25.58C82.0749 25.06 81.8083 24.4133 81.8083 23.64C81.8083 22.6933 82.1683 21.9533 82.8883 21.42C83.6216 20.8733 84.6283 20.6 85.9083 20.6C87.1749 20.6 88.1883 20.8733 88.9483 21.42C89.7216 21.9533 90.1483 22.6933 90.2283 23.64H87.9283C87.8616 23.2267 87.6483 22.9133 87.2883 22.7C86.9416 22.4867 86.4616 22.38 85.8483 22.38C85.2749 22.38 84.8416 22.4733 84.5483 22.66C84.2549 22.8333 84.1083 23.0933 84.1083 23.44C84.1083 23.7067 84.2216 23.9333 84.4483 24.12C84.6749 24.2933 85.0549 24.4467 85.5883 24.58L87.3483 24.98C88.3483 25.2067 89.1016 25.6 89.6083 26.16C90.1283 26.72 90.3883 27.38 90.3883 28.14C90.3883 29.1133 90.0149 29.8667 89.2683 30.4C88.5216 30.9333 87.4749 31.2 86.1283 31.2ZM96.8427 31.2C95.7627 31.2 94.816 30.9733 94.0027 30.52C93.2027 30.0667 92.576 29.44 92.1227 28.64C91.6827 27.84 91.4627 26.92 91.4627 25.88C91.4627 24.84 91.6827 23.9267 92.1227 23.14C92.576 22.34 93.2027 21.72 94.0027 21.28C94.8027 20.8267 95.736 20.6 96.8027 20.6C97.816 20.6 98.696 20.8133 99.4427 21.24C100.189 21.6533 100.769 22.24 101.183 23C101.596 23.76 101.803 24.6467 101.803 25.66C101.803 25.8467 101.796 26.02 101.783 26.18C101.769 26.34 101.749 26.5 101.723 26.66H93.0227V24.9H99.7827L99.2627 25.38C99.2627 24.42 99.0427 23.7 98.6027 23.22C98.1627 22.74 97.5493 22.5 96.7627 22.5C95.9093 22.5 95.2293 22.7933 94.7227 23.38C94.2293 23.9667 93.9827 24.8133 93.9827 25.92C93.9827 27.0133 94.2293 27.8533 94.7227 28.44C95.2293 29.0133 95.9427 29.3 96.8627 29.3C97.396 29.3 97.8627 29.2 98.2627 29C98.6627 28.8 98.956 28.4933 99.1427 28.08H101.523C101.189 29.04 100.623 29.8 99.8227 30.36C99.036 30.92 98.0427 31.2 96.8427 31.2ZM110.866 31V28.7L111.066 28.74C110.893 29.4867 110.473 30.0867 109.806 30.54C109.139 30.98 108.346 31.2 107.426 31.2C106.493 31.2 105.679 30.9867 104.986 30.56C104.306 30.12 103.779 29.5067 103.406 28.72C103.033 27.9333 102.846 27.0067 102.846 25.94C102.846 24.86 103.039 23.92 103.426 23.12C103.813 22.32 104.353 21.7 105.046 21.26C105.753 20.82 106.573 20.6 107.506 20.6C108.466 20.6 109.259 20.8333 109.886 21.3C110.513 21.7533 110.899 22.3867 111.046 23.2L110.786 23.22V16.6H113.326V31H110.866ZM108.166 29.14C108.979 29.14 109.626 28.86 110.106 28.3C110.599 27.7267 110.846 26.9267 110.846 25.9C110.846 24.8733 110.599 24.08 110.106 23.52C109.613 22.96 108.959 22.68 108.146 22.68C107.346 22.68 106.699 22.9667 106.206 23.54C105.713 24.1 105.466 24.8933 105.466 25.92C105.466 26.9467 105.713 27.74 106.206 28.3C106.699 28.86 107.353 29.14 108.166 29.14Z" fill="#F8FAF9"/>
<defs>
<clipPath id="clip0_280_5692">
<rect width="24" height="24" fill="white" transform="translate(16 12)"/>
</clipPath>
</defs>
</svg>
