<svg width="152" height="48" viewBox="0 0 152 48" fill="none" xmlns="http://www.w3.org/2000/svg">
<rect width="152" height="48" rx="24" fill="#F5A346"/>
<g clip-path="url(#clip0_10206_21695)">
<path d="M35 23H27V25H35V28L40 24L35 20V23ZM36 30H33.292C32.1373 31.0183 30.7133 31.6819 29.1909 31.9109C27.6684 32.14 26.1122 31.9249 24.709 31.2915C23.3058 30.6581 22.1151 29.6332 21.2799 28.3398C20.4447 27.0465 20.0005 25.5396 20.0005 24C20.0005 22.4604 20.4447 20.9535 21.2799 19.6602C22.1151 18.3668 23.3058 17.3419 24.709 16.7085C26.1122 16.0751 27.6684 15.86 29.1909 16.0891C30.7133 16.3181 32.1373 16.9817 33.292 18H36C35.0693 16.7572 33.8617 15.7485 32.4729 15.0541C31.0842 14.3598 29.5527 13.9988 28 14C22.477 14 18 18.477 18 24C18 29.523 22.477 34 28 34C29.5527 34.0012 31.0842 33.6402 32.4729 32.9459C33.8617 32.2515 35.0693 31.2428 36 30Z" fill="#F8FAF9"/>
</g>
<path d="M52.82 31.18C51.0067 31.18 49.56 30.7667 48.48 29.94C47.4133 29.1 46.7867 27.92 46.6 26.4H49.1C49.22 27.28 49.6133 27.9667 50.28 28.46C50.9467 28.94 51.82 29.18 52.9 29.18C53.7933 29.18 54.4733 29.02 54.94 28.7C55.42 28.3667 55.66 27.9067 55.66 27.32C55.66 26.8 55.5133 26.38 55.22 26.06C54.9267 25.74 54.4333 25.48 53.74 25.28L51.14 24.5C49.82 24.1 48.8467 23.5733 48.22 22.92C47.6067 22.2667 47.3 21.4467 47.3 20.46C47.3 19.6333 47.5133 18.9133 47.94 18.3C48.3667 17.6867 48.9667 17.2133 49.74 16.88C50.5267 16.5467 51.44 16.38 52.48 16.38C54.08 16.38 55.3533 16.7733 56.3 17.56C57.26 18.3333 57.8067 19.3867 57.94 20.72H55.44C55.2933 19.92 54.96 19.3333 54.44 18.96C53.92 18.5733 53.22 18.38 52.34 18.38C51.5667 18.38 50.9533 18.5333 50.5 18.84C50.0467 19.1467 49.82 19.5667 49.82 20.1C49.82 20.54 49.9533 20.9133 50.22 21.22C50.5 21.5267 51.0133 21.7933 51.76 22.02L54.4 22.82C55.72 23.2067 56.68 23.7333 57.28 24.4C57.88 25.0667 58.18 25.9133 58.18 26.94C58.18 28.3 57.7067 29.3467 56.76 30.08C55.8267 30.8133 54.5133 31.18 52.82 31.18ZM64.2553 31.2C63.2286 31.2 62.322 30.9733 61.5353 30.52C60.762 30.0667 60.1486 29.44 59.6953 28.64C59.2553 27.8267 59.0353 26.9067 59.0353 25.88C59.0353 24.8533 59.2553 23.9467 59.6953 23.16C60.1486 22.36 60.762 21.7333 61.5353 21.28C62.322 20.8267 63.2286 20.6 64.2553 20.6C65.0953 20.6 65.8553 20.76 66.5353 21.08C67.2153 21.3867 67.7753 21.8267 68.2153 22.4C68.6553 22.96 68.9353 23.6133 69.0553 24.36H66.6353C66.4886 23.8133 66.2086 23.3867 65.7953 23.08C65.382 22.7733 64.882 22.62 64.2953 22.62C63.7486 22.62 63.2753 22.7533 62.8753 23.02C62.4886 23.2867 62.1886 23.6667 61.9753 24.16C61.762 24.6533 61.6553 25.2267 61.6553 25.88C61.6553 26.5467 61.762 27.1267 61.9753 27.62C62.1886 28.1133 62.4953 28.5 62.8953 28.78C63.2953 29.0467 63.762 29.18 64.2953 29.18C64.882 29.18 65.382 29.0267 65.7953 28.72C66.2086 28.4133 66.4886 27.9867 66.6353 27.44H69.0553C68.9353 28.1867 68.6486 28.8467 68.1953 29.42C67.7553 29.98 67.1953 30.42 66.5153 30.74C65.8486 31.0467 65.0953 31.2 64.2553 31.2ZM76.8938 31C76.8271 30.7333 76.7738 30.44 76.7338 30.12C76.7071 29.8 76.6938 29.4133 76.6938 28.96H76.6138V24.12C76.6138 23.5867 76.4604 23.1867 76.1538 22.92C75.8604 22.64 75.4071 22.5 74.7938 22.5C74.1938 22.5 73.7138 22.6133 73.3538 22.84C73.0071 23.0533 72.7938 23.3667 72.7138 23.78H70.2938C70.4004 22.8333 70.8538 22.0667 71.6538 21.48C72.4538 20.8933 73.5271 20.6 74.8738 20.6C76.2738 20.6 77.3338 20.92 78.0538 21.56C78.7738 22.1867 79.1338 23.1133 79.1338 24.34V28.96C79.1338 29.28 79.1538 29.6067 79.1938 29.94C79.2471 30.2733 79.3204 30.6267 79.4138 31H76.8938ZM73.3538 31.2C72.3271 31.2 71.5071 30.9467 70.8938 30.44C70.2938 29.92 69.9938 29.2267 69.9938 28.36C69.9938 27.4267 70.3338 26.6867 71.0138 26.14C71.6938 25.5933 72.6538 25.2267 73.8938 25.04L77.0738 24.56V26.16L74.3138 26.58C73.7138 26.6733 73.2604 26.84 72.9538 27.08C72.6604 27.32 72.5138 27.6533 72.5138 28.08C72.5138 28.4667 72.6538 28.7667 72.9338 28.98C73.2138 29.18 73.6004 29.28 74.0938 29.28C74.8138 29.28 75.4138 29.1 75.8938 28.74C76.3738 28.38 76.6138 27.94 76.6138 27.42L76.8938 28.96C76.6271 29.6933 76.1871 30.2533 75.5738 30.64C74.9738 31.0133 74.2338 31.2 73.3538 31.2ZM81.4861 31V16.6H84.0061V31H81.4861ZM91.0614 31.2C89.9814 31.2 89.0347 30.9733 88.2214 30.52C87.4214 30.0667 86.7947 29.44 86.3414 28.64C85.9014 27.84 85.6814 26.92 85.6814 25.88C85.6814 24.84 85.9014 23.9267 86.3414 23.14C86.7947 22.34 87.4214 21.72 88.2214 21.28C89.0214 20.8267 89.9547 20.6 91.0214 20.6C92.0347 20.6 92.9147 20.8133 93.6614 21.24C94.4081 21.6533 94.9881 22.24 95.4014 23C95.8147 23.76 96.0214 24.6467 96.0214 25.66C96.0214 25.8467 96.0147 26.02 96.0014 26.18C95.9881 26.34 95.9681 26.5 95.9414 26.66H87.2414V24.9H94.0014L93.4814 25.38C93.4814 24.42 93.2614 23.7 92.8214 23.22C92.3814 22.74 91.7681 22.5 90.9814 22.5C90.1281 22.5 89.4481 22.7933 88.9414 23.38C88.4481 23.9667 88.2014 24.8133 88.2014 25.92C88.2014 27.0133 88.4481 27.8533 88.9414 28.44C89.4481 29.0133 90.1614 29.3 91.0814 29.3C91.6147 29.3 92.0814 29.2 92.4814 29C92.8814 28.8 93.1747 28.4933 93.3614 28.08H95.7414C95.4081 29.04 94.8414 29.8 94.0414 30.36C93.2547 30.92 92.2614 31.2 91.0614 31.2ZM107.974 31.2C106.934 31.2 105.974 31.02 105.094 30.66C104.214 30.3 103.448 29.7867 102.794 29.12C102.154 28.4533 101.654 27.6667 101.294 26.76C100.948 25.84 100.774 24.8333 100.774 23.74C100.774 22.2867 101.081 21.0133 101.694 19.92C102.308 18.8133 103.154 17.9533 104.234 17.34C105.328 16.7133 106.568 16.4 107.954 16.4C109.368 16.4 110.614 16.7133 111.694 17.34C112.788 17.9533 113.641 18.8133 114.254 19.92C114.868 21.0267 115.174 22.3067 115.174 23.76C115.174 24.8533 114.994 25.8533 114.634 26.76C114.288 27.6667 113.788 28.4533 113.134 29.12C112.494 29.7867 111.734 30.3 110.854 30.66C109.974 31.02 109.014 31.2 107.974 31.2ZM107.954 29.08C108.861 29.08 109.654 28.8533 110.334 28.4C111.028 27.9467 111.568 27.32 111.954 26.52C112.341 25.7067 112.534 24.7733 112.534 23.72C112.534 22.68 112.341 21.7733 111.954 21C111.581 20.2133 111.048 19.6067 110.354 19.18C109.674 18.74 108.874 18.52 107.954 18.52C107.048 18.52 106.248 18.74 105.554 19.18C104.874 19.6067 104.348 20.2067 103.974 20.98C103.601 21.7533 103.414 22.6667 103.414 23.72C103.414 24.7867 103.601 25.72 103.974 26.52C104.361 27.32 104.894 27.9467 105.574 28.4C106.268 28.8533 107.061 29.08 107.954 29.08ZM120.256 31.2C119.549 31.2 118.936 31.0533 118.416 30.76C117.909 30.4533 117.516 30.04 117.236 29.52C116.969 29 116.836 28.4133 116.836 27.76V20.8H119.356V27.24C119.356 27.8667 119.509 28.34 119.816 28.66C120.136 28.98 120.582 29.14 121.156 29.14C121.676 29.14 122.129 29.02 122.516 28.78C122.916 28.54 123.229 28.2067 123.456 27.78C123.696 27.34 123.816 26.8467 123.816 26.3L124.076 28.74C123.742 29.4867 123.242 30.0867 122.576 30.54C121.922 30.98 121.149 31.2 120.256 31.2ZM123.896 31V28.6H123.816V20.8H126.356V31H123.896ZM133.25 31.2C131.996 31.2 131.07 30.9067 130.47 30.32C129.883 29.72 129.59 28.8267 129.59 27.64V18.48L132.13 17.54V27.7C132.13 28.1933 132.263 28.56 132.53 28.8C132.796 29.04 133.216 29.16 133.79 29.16C134.016 29.16 134.216 29.1467 134.39 29.12C134.576 29.08 134.75 29.0333 134.91 28.98V30.94C134.75 31.02 134.523 31.08 134.23 31.12C133.936 31.1733 133.61 31.2 133.25 31.2ZM127.63 22.78V20.8H134.91V22.78H127.63Z" fill="#F8FAF9"/>
<defs>
<clipPath id="clip0_10206_21695">
<rect width="24" height="24" fill="white" transform="matrix(-1 0 0 1 40 12)"/>
</clipPath>
</defs>
</svg>
