<svg width="153" height="48" viewBox="0 0 153 48" fill="none" xmlns="http://www.w3.org/2000/svg">
<rect width="153" height="48" rx="24" fill="#404543"/>
<g clip-path="url(#clip0_280_5722)">
<path d="M28 34C22.477 34 18 29.523 18 24C18 18.477 22.477 14 28 14C33.523 14 38 18.477 38 24C38 29.523 33.523 34 28 34ZM28 32C30.1217 32 32.1566 31.1571 33.6569 29.6569C35.1571 28.1566 36 26.1217 36 24C36 21.8783 35.1571 19.8434 33.6569 18.3431C32.1566 16.8429 30.1217 16 28 16C25.8783 16 23.8434 16.8429 22.3431 18.3431C20.8429 19.8434 20 21.8783 20 24C20 26.1217 20.8429 28.1566 22.3431 29.6569C23.8434 31.1571 25.8783 32 28 32ZM25 21H31V27H25V21Z" fill="#F8FAF9"/>
</g>
<path d="M52.82 31.18C51.0067 31.18 49.56 30.7667 48.48 29.94C47.4133 29.1 46.7867 27.92 46.6 26.4H49.1C49.22 27.28 49.6133 27.9667 50.28 28.46C50.9467 28.94 51.82 29.18 52.9 29.18C53.7933 29.18 54.4733 29.02 54.94 28.7C55.42 28.3667 55.66 27.9067 55.66 27.32C55.66 26.8 55.5133 26.38 55.22 26.06C54.9267 25.74 54.4333 25.48 53.74 25.28L51.14 24.5C49.82 24.1 48.8467 23.5733 48.22 22.92C47.6067 22.2667 47.3 21.4467 47.3 20.46C47.3 19.6333 47.5133 18.9133 47.94 18.3C48.3667 17.6867 48.9667 17.2133 49.74 16.88C50.5267 16.5467 51.44 16.38 52.48 16.38C54.08 16.38 55.3533 16.7733 56.3 17.56C57.26 18.3333 57.8067 19.3867 57.94 20.72H55.44C55.2933 19.92 54.96 19.3333 54.44 18.96C53.92 18.5733 53.22 18.38 52.34 18.38C51.5667 18.38 50.9533 18.5333 50.5 18.84C50.0467 19.1467 49.82 19.5667 49.82 20.1C49.82 20.54 49.9533 20.9133 50.22 21.22C50.5 21.5267 51.0133 21.7933 51.76 22.02L54.4 22.82C55.72 23.2067 56.68 23.7333 57.28 24.4C57.88 25.0667 58.18 25.9133 58.18 26.94C58.18 28.3 57.7067 29.3467 56.76 30.08C55.8267 30.8133 54.5133 31.18 52.82 31.18ZM64.3958 31.2C63.1424 31.2 62.2158 30.9067 61.6158 30.32C61.0291 29.72 60.7358 28.8267 60.7358 27.64V18.48L63.2758 17.54V27.7C63.2758 28.1933 63.4091 28.56 63.6758 28.8C63.9424 29.04 64.3624 29.16 64.9358 29.16C65.1624 29.16 65.3624 29.1467 65.5358 29.12C65.7224 29.08 65.8958 29.0333 66.0558 28.98V30.94C65.8958 31.02 65.6691 31.08 65.3758 31.12C65.0824 31.1733 64.7558 31.2 64.3958 31.2ZM58.7758 22.78V20.8H66.0558V22.78H58.7758ZM72.0683 31.2C70.9883 31.2 70.0349 30.9733 69.2083 30.52C68.3949 30.0667 67.7616 29.44 67.3083 28.64C66.8549 27.8267 66.6283 26.9 66.6283 25.86C66.6283 24.82 66.8549 23.9067 67.3083 23.12C67.7616 22.3333 68.3949 21.72 69.2083 21.28C70.0349 20.8267 70.9883 20.6 72.0683 20.6C73.1616 20.6 74.1149 20.8267 74.9283 21.28C75.7416 21.72 76.3749 22.3333 76.8283 23.12C77.2816 23.9067 77.5083 24.82 77.5083 25.86C77.5083 26.9 77.2749 27.8267 76.8083 28.64C76.3549 29.44 75.7216 30.0667 74.9083 30.52C74.0949 30.9733 73.1483 31.2 72.0683 31.2ZM72.0683 29.18C72.6016 29.18 73.0816 29.0467 73.5083 28.78C73.9349 28.5 74.2683 28.1133 74.5083 27.62C74.7483 27.1133 74.8683 26.52 74.8683 25.84C74.8683 24.84 74.6016 24.0533 74.0683 23.48C73.5483 22.9067 72.8816 22.62 72.0683 22.62C71.2549 22.62 70.5816 22.9067 70.0483 23.48C69.5149 24.0533 69.2483 24.84 69.2483 25.84C69.2483 26.52 69.3683 27.1133 69.6083 27.62C69.8616 28.1133 70.1949 28.5 70.6083 28.78C71.0349 29.0467 71.5216 29.18 72.0683 29.18ZM84.9819 31.2C84.0085 31.2 83.2152 30.9733 82.6019 30.52C82.0019 30.0533 81.6285 29.4133 81.4819 28.6L81.6819 28.58V35.1H79.1619V20.8H81.6219V23.1L81.4219 23.06C81.6085 22.3 82.0352 21.7 82.7019 21.26C83.3685 20.82 84.1819 20.6 85.1419 20.6C86.0485 20.6 86.8352 20.82 87.5019 21.26C88.1819 21.6867 88.7085 22.2933 89.0819 23.08C89.4552 23.8667 89.6419 24.7933 89.6419 25.86C89.6419 26.94 89.4485 27.88 89.0619 28.68C88.6752 29.48 88.1352 30.1 87.4419 30.54C86.7485 30.98 85.9285 31.2 84.9819 31.2ZM84.3419 29.12C85.1552 29.12 85.8019 28.84 86.2819 28.28C86.7619 27.7067 87.0019 26.9067 87.0019 25.88C87.0019 24.8533 86.7552 24.06 86.2619 23.5C85.7819 22.94 85.1352 22.66 84.3219 22.66C83.5219 22.66 82.8752 22.9467 82.3819 23.52C81.8885 24.08 81.6419 24.8733 81.6419 25.9C81.6419 26.9267 81.8885 27.72 82.3819 28.28C82.8752 28.84 83.5285 29.12 84.3419 29.12ZM94.9509 31V16.6H97.5509V31H94.9509ZM96.1909 31V28.94H104.631V31H96.1909ZM110.467 31.2C109.387 31.2 108.434 30.9733 107.607 30.52C106.794 30.0667 106.161 29.44 105.707 28.64C105.254 27.8267 105.027 26.9 105.027 25.86C105.027 24.82 105.254 23.9067 105.707 23.12C106.161 22.3333 106.794 21.72 107.607 21.28C108.434 20.8267 109.387 20.6 110.467 20.6C111.561 20.6 112.514 20.8267 113.327 21.28C114.141 21.72 114.774 22.3333 115.227 23.12C115.681 23.9067 115.908 24.82 115.908 25.86C115.908 26.9 115.674 27.8267 115.207 28.64C114.754 29.44 114.121 30.0667 113.307 30.52C112.494 30.9733 111.547 31.2 110.467 31.2ZM110.467 29.18C111.001 29.18 111.481 29.0467 111.907 28.78C112.334 28.5 112.667 28.1133 112.907 27.62C113.147 27.1133 113.267 26.52 113.267 25.84C113.267 24.84 113.001 24.0533 112.467 23.48C111.947 22.9067 111.281 22.62 110.467 22.62C109.654 22.62 108.981 22.9067 108.447 23.48C107.914 24.0533 107.647 24.84 107.647 25.84C107.647 26.52 107.767 27.1133 108.007 27.62C108.261 28.1133 108.594 28.5 109.007 28.78C109.434 29.0467 109.921 29.18 110.467 29.18ZM121.5 31.2C120.087 31.2 118.96 30.9067 118.12 30.32C117.28 29.72 116.82 28.8933 116.74 27.84H119.04C119.107 28.36 119.353 28.7533 119.78 29.02C120.207 29.2867 120.78 29.42 121.5 29.42C122.153 29.42 122.64 29.32 122.96 29.12C123.293 28.9067 123.46 28.6067 123.46 28.22C123.46 27.94 123.367 27.7133 123.18 27.54C122.993 27.3533 122.64 27.2 122.12 27.08L120.48 26.7C119.36 26.46 118.527 26.0867 117.98 25.58C117.447 25.06 117.18 24.4133 117.18 23.64C117.18 22.6933 117.54 21.9533 118.26 21.42C118.993 20.8733 120 20.6 121.28 20.6C122.547 20.6 123.56 20.8733 124.32 21.42C125.093 21.9533 125.52 22.6933 125.6 23.64H123.3C123.233 23.2267 123.02 22.9133 122.66 22.7C122.313 22.4867 121.833 22.38 121.22 22.38C120.647 22.38 120.213 22.4733 119.92 22.66C119.627 22.8333 119.48 23.0933 119.48 23.44C119.48 23.7067 119.593 23.9333 119.82 24.12C120.047 24.2933 120.427 24.4467 120.96 24.58L122.72 24.98C123.72 25.2067 124.473 25.6 124.98 26.16C125.5 26.72 125.76 27.38 125.76 28.14C125.76 29.1133 125.387 29.8667 124.64 30.4C123.893 30.9333 122.847 31.2 121.5 31.2ZM131.359 31.2C129.945 31.2 128.819 30.9067 127.979 30.32C127.139 29.72 126.679 28.8933 126.599 27.84H128.899C128.965 28.36 129.212 28.7533 129.639 29.02C130.065 29.2867 130.639 29.42 131.359 29.42C132.012 29.42 132.499 29.32 132.819 29.12C133.152 28.9067 133.319 28.6067 133.319 28.22C133.319 27.94 133.225 27.7133 133.039 27.54C132.852 27.3533 132.499 27.2 131.979 27.08L130.339 26.7C129.219 26.46 128.385 26.0867 127.839 25.58C127.305 25.06 127.039 24.4133 127.039 23.64C127.039 22.6933 127.399 21.9533 128.119 21.42C128.852 20.8733 129.859 20.6 131.139 20.6C132.405 20.6 133.419 20.8733 134.179 21.42C134.952 21.9533 135.379 22.6933 135.459 23.64H133.159C133.092 23.2267 132.879 22.9133 132.519 22.7C132.172 22.4867 131.692 22.38 131.079 22.38C130.505 22.38 130.072 22.4733 129.779 22.66C129.485 22.8333 129.339 23.0933 129.339 23.44C129.339 23.7067 129.452 23.9333 129.679 24.12C129.905 24.2933 130.285 24.4467 130.819 24.58L132.579 24.98C133.579 25.2067 134.332 25.6 134.839 26.16C135.359 26.72 135.619 27.38 135.619 28.14C135.619 29.1133 135.245 29.8667 134.499 30.4C133.752 30.9333 132.705 31.2 131.359 31.2Z" fill="#F8FAF9"/>
<defs>
<clipPath id="clip0_280_5722">
<rect width="24" height="24" fill="white" transform="translate(16 12)"/>
</clipPath>
</defs>
</svg>
