<svg width="134" height="48" viewBox="0 0 134 48" fill="none" xmlns="http://www.w3.org/2000/svg">
<rect width="134" height="48" rx="24" fill="#FF6937"/>
<g clip-path="url(#clip0_280_5716)">
<path d="M19 28.6669L19 14.2019C19 13.9366 19.1054 13.6823 19.2929 13.4947C19.4804 13.3072 19.7348 13.2019 20 13.2019L36 13.2019C36.2652 13.2019 36.5196 13.3072 36.7071 13.4947C36.8946 13.6823 37 13.9366 37 14.2019L37 28.6668C37 28.8314 36.9594 28.9935 36.8818 29.1386C36.8042 29.2838 36.6919 29.4075 36.555 29.4988L28.555 34.8318C28.3907 34.9415 28.1975 35 28 35C27.8025 35 27.6093 34.9415 27.445 34.8318L19.445 29.4989C19.3081 29.4075 19.1958 29.2838 19.1182 29.1386C19.0406 28.9935 19 28.8314 19 28.6669ZM21 28.1319L28 32.7978L35 28.1318L35 15.2019L21 15.2019L21 28.1319Z" fill="#F8FAF9"/>
<path d="M31.5 23.7019V21.7019H24.5V23.7019H31.5Z" fill="#F8FAF9"/>
</g>
<path d="M52.82 31.18C51.0067 31.18 49.56 30.7667 48.48 29.94C47.4133 29.1 46.7867 27.92 46.6 26.4H49.1C49.22 27.28 49.6133 27.9667 50.28 28.46C50.9467 28.94 51.82 29.18 52.9 29.18C53.7933 29.18 54.4733 29.02 54.94 28.7C55.42 28.3667 55.66 27.9067 55.66 27.32C55.66 26.8 55.5133 26.38 55.22 26.06C54.9267 25.74 54.4333 25.48 53.74 25.28L51.14 24.5C49.82 24.1 48.8467 23.5733 48.22 22.92C47.6067 22.2667 47.3 21.4467 47.3 20.46C47.3 19.6333 47.5133 18.9133 47.94 18.3C48.3667 17.6867 48.9667 17.2133 49.74 16.88C50.5267 16.5467 51.44 16.38 52.48 16.38C54.08 16.38 55.3533 16.7733 56.3 17.56C57.26 18.3333 57.8067 19.3867 57.94 20.72H55.44C55.2933 19.92 54.96 19.3333 54.44 18.96C53.92 18.5733 53.22 18.38 52.34 18.38C51.5667 18.38 50.9533 18.5333 50.5 18.84C50.0467 19.1467 49.82 19.5667 49.82 20.1C49.82 20.54 49.9533 20.9133 50.22 21.22C50.5 21.5267 51.0133 21.7933 51.76 22.02L54.4 22.82C55.72 23.2067 56.68 23.7333 57.28 24.4C57.88 25.0667 58.18 25.9133 58.18 26.94C58.18 28.3 57.7067 29.3467 56.76 30.08C55.8267 30.8133 54.5133 31.18 52.82 31.18ZM64.4753 31.2C63.3953 31.2 62.442 30.9733 61.6153 30.52C60.802 30.0667 60.1686 29.44 59.7153 28.64C59.262 27.8267 59.0353 26.9 59.0353 25.86C59.0353 24.82 59.262 23.9067 59.7153 23.12C60.1686 22.3333 60.802 21.72 61.6153 21.28C62.442 20.8267 63.3953 20.6 64.4753 20.6C65.5686 20.6 66.522 20.8267 67.3353 21.28C68.1486 21.72 68.782 22.3333 69.2353 23.12C69.6886 23.9067 69.9153 24.82 69.9153 25.86C69.9153 26.9 69.682 27.8267 69.2153 28.64C68.762 29.44 68.1286 30.0667 67.3153 30.52C66.502 30.9733 65.5553 31.2 64.4753 31.2ZM64.4753 29.18C65.0086 29.18 65.4886 29.0467 65.9153 28.78C66.342 28.5 66.6753 28.1133 66.9153 27.62C67.1553 27.1133 67.2753 26.52 67.2753 25.84C67.2753 24.84 67.0086 24.0533 66.4753 23.48C65.9553 22.9067 65.2886 22.62 64.4753 22.62C63.662 22.62 62.9886 22.9067 62.4553 23.48C61.922 24.0533 61.6553 24.84 61.6553 25.84C61.6553 26.52 61.7753 27.1133 62.0153 27.62C62.2686 28.1133 62.602 28.5 63.0153 28.78C63.442 29.0467 63.9286 29.18 64.4753 29.18ZM72.2127 31V19.86C72.2127 18.74 72.5193 17.8867 73.1327 17.3C73.7593 16.7 74.6927 16.4 75.9327 16.4C76.2127 16.4 76.446 16.4133 76.6327 16.44C76.8193 16.4667 76.9993 16.5067 77.1727 16.56V18.52C77.0793 18.48 76.9593 18.4533 76.8127 18.44C76.666 18.4133 76.4993 18.4 76.3127 18.4C75.7793 18.4 75.3793 18.5333 75.1127 18.8C74.8593 19.0533 74.7327 19.4267 74.7327 19.92V31H72.2127ZM70.3727 22.78V20.8H76.9527V22.78H70.3727ZM83.3122 31.2C82.0589 31.2 81.1322 30.9067 80.5322 30.32C79.9455 29.72 79.6522 28.8267 79.6522 27.64V18.48L82.1922 17.54V27.7C82.1922 28.1933 82.3255 28.56 82.5922 28.8C82.8589 29.04 83.2789 29.16 83.8522 29.16C84.0789 29.16 84.2789 29.1467 84.4522 29.12C84.6389 29.08 84.8122 29.0333 84.9722 28.98V30.94C84.8122 31.02 84.5855 31.08 84.2922 31.12C83.9989 31.1733 83.6722 31.2 83.3122 31.2ZM77.6922 22.78V20.8H84.9722V22.78H77.6922ZM90.2244 31V16.6H92.8244V31H90.2244ZM92.1044 23.52L98.9244 16.6H102.424L95.3244 23.52H92.1044ZM99.2444 31L92.0644 23.52H95.3244L102.824 31H99.2444ZM103.972 31V20.8H106.492V31H103.972ZM103.852 19.12V16.34H106.592V19.12H103.852ZM108.967 31V16.6H111.487V31H108.967ZM113.963 31V16.6H116.483V31H113.963Z" fill="#F8FAF9"/>
<defs>
<clipPath id="clip0_280_5716">
<rect width="24" height="24" fill="white" transform="translate(16 12)"/>
</clipPath>
</defs>
</svg>
