<svg width="143" height="48" viewBox="0 0 143 48" fill="none" xmlns="http://www.w3.org/2000/svg">
<rect width="143" height="48" rx="24" fill="#15CB72"/>
<g clip-path="url(#clip0_280_5698)">
<path d="M29 19.828V32H27V19.828L21.636 25.192L20.222 23.778L28 16L35.778 23.778L34.364 25.192L29 19.828Z" fill="#F8FAF9"/>
</g>
<path d="M52.82 31.18C51.0067 31.18 49.56 30.7667 48.48 29.94C47.4133 29.1 46.7867 27.92 46.6 26.4H49.1C49.22 27.28 49.6133 27.9667 50.28 28.46C50.9467 28.94 51.82 29.18 52.9 29.18C53.7933 29.18 54.4733 29.02 54.94 28.7C55.42 28.3667 55.66 27.9067 55.66 27.32C55.66 26.8 55.5133 26.38 55.22 26.06C54.9267 25.74 54.4333 25.48 53.74 25.28L51.14 24.5C49.82 24.1 48.8467 23.5733 48.22 22.92C47.6067 22.2667 47.3 21.4467 47.3 20.46C47.3 19.6333 47.5133 18.9133 47.94 18.3C48.3667 17.6867 48.9667 17.2133 49.74 16.88C50.5267 16.5467 51.44 16.38 52.48 16.38C54.08 16.38 55.3533 16.7733 56.3 17.56C57.26 18.3333 57.8067 19.3867 57.94 20.72H55.44C55.2933 19.92 54.96 19.3333 54.44 18.96C53.92 18.5733 53.22 18.38 52.34 18.38C51.5667 18.38 50.9533 18.5333 50.5 18.84C50.0467 19.1467 49.82 19.5667 49.82 20.1C49.82 20.54 49.9533 20.9133 50.22 21.22C50.5 21.5267 51.0133 21.7933 51.76 22.02L54.4 22.82C55.72 23.2067 56.68 23.7333 57.28 24.4C57.88 25.0667 58.18 25.9133 58.18 26.94C58.18 28.3 57.7067 29.3467 56.76 30.08C55.8267 30.8133 54.5133 31.18 52.82 31.18ZM64.2553 31.2C63.2286 31.2 62.322 30.9733 61.5353 30.52C60.762 30.0667 60.1486 29.44 59.6953 28.64C59.2553 27.8267 59.0353 26.9067 59.0353 25.88C59.0353 24.8533 59.2553 23.9467 59.6953 23.16C60.1486 22.36 60.762 21.7333 61.5353 21.28C62.322 20.8267 63.2286 20.6 64.2553 20.6C65.0953 20.6 65.8553 20.76 66.5353 21.08C67.2153 21.3867 67.7753 21.8267 68.2153 22.4C68.6553 22.96 68.9353 23.6133 69.0553 24.36H66.6353C66.4886 23.8133 66.2086 23.3867 65.7953 23.08C65.382 22.7733 64.882 22.62 64.2953 22.62C63.7486 22.62 63.2753 22.7533 62.8753 23.02C62.4886 23.2867 62.1886 23.6667 61.9753 24.16C61.762 24.6533 61.6553 25.2267 61.6553 25.88C61.6553 26.5467 61.762 27.1267 61.9753 27.62C62.1886 28.1133 62.4953 28.5 62.8953 28.78C63.2953 29.0467 63.762 29.18 64.2953 29.18C64.882 29.18 65.382 29.0267 65.7953 28.72C66.2086 28.4133 66.4886 27.9867 66.6353 27.44H69.0553C68.9353 28.1867 68.6486 28.8467 68.1953 29.42C67.7553 29.98 67.1953 30.42 66.5153 30.74C65.8486 31.0467 65.0953 31.2 64.2553 31.2ZM76.8938 31C76.8271 30.7333 76.7738 30.44 76.7338 30.12C76.7071 29.8 76.6938 29.4133 76.6938 28.96H76.6138V24.12C76.6138 23.5867 76.4604 23.1867 76.1538 22.92C75.8604 22.64 75.4071 22.5 74.7938 22.5C74.1938 22.5 73.7138 22.6133 73.3538 22.84C73.0071 23.0533 72.7938 23.3667 72.7138 23.78H70.2938C70.4004 22.8333 70.8538 22.0667 71.6538 21.48C72.4538 20.8933 73.5271 20.6 74.8738 20.6C76.2738 20.6 77.3338 20.92 78.0538 21.56C78.7738 22.1867 79.1338 23.1133 79.1338 24.34V28.96C79.1338 29.28 79.1538 29.6067 79.1938 29.94C79.2471 30.2733 79.3204 30.6267 79.4138 31H76.8938ZM73.3538 31.2C72.3271 31.2 71.5071 30.9467 70.8938 30.44C70.2938 29.92 69.9938 29.2267 69.9938 28.36C69.9938 27.4267 70.3338 26.6867 71.0138 26.14C71.6938 25.5933 72.6538 25.2267 73.8938 25.04L77.0738 24.56V26.16L74.3138 26.58C73.7138 26.6733 73.2604 26.84 72.9538 27.08C72.6604 27.32 72.5138 27.6533 72.5138 28.08C72.5138 28.4667 72.6538 28.7667 72.9338 28.98C73.2138 29.18 73.6004 29.28 74.0938 29.28C74.8138 29.28 75.4138 29.1 75.8938 28.74C76.3738 28.38 76.6138 27.94 76.6138 27.42L76.8938 28.96C76.6271 29.6933 76.1871 30.2533 75.5738 30.64C74.9738 31.0133 74.2338 31.2 73.3538 31.2ZM81.4861 31V16.6H84.0061V31H81.4861ZM91.0614 31.2C89.9814 31.2 89.0347 30.9733 88.2214 30.52C87.4214 30.0667 86.7947 29.44 86.3414 28.64C85.9014 27.84 85.6814 26.92 85.6814 25.88C85.6814 24.84 85.9014 23.9267 86.3414 23.14C86.7947 22.34 87.4214 21.72 88.2214 21.28C89.0214 20.8267 89.9547 20.6 91.0214 20.6C92.0347 20.6 92.9147 20.8133 93.6614 21.24C94.4081 21.6533 94.9881 22.24 95.4014 23C95.8147 23.76 96.0214 24.6467 96.0214 25.66C96.0214 25.8467 96.0147 26.02 96.0014 26.18C95.9881 26.34 95.9681 26.5 95.9414 26.66H87.2414V24.9H94.0014L93.4814 25.38C93.4814 24.42 93.2614 23.7 92.8214 23.22C92.3814 22.74 91.7681 22.5 90.9814 22.5C90.1281 22.5 89.4481 22.7933 88.9414 23.38C88.4481 23.9667 88.2014 24.8133 88.2014 25.92C88.2014 27.0133 88.4481 27.8533 88.9414 28.44C89.4481 29.0133 90.1614 29.3 91.0814 29.3C91.6147 29.3 92.0814 29.2 92.4814 29C92.8814 28.8 93.1747 28.4933 93.3614 28.08H95.7414C95.4081 29.04 94.8414 29.8 94.0414 30.36C93.2547 30.92 92.2614 31.2 91.0614 31.2ZM107.054 31.2C105.108 31.2 103.634 30.6467 102.634 29.54C101.634 28.4333 101.134 26.8467 101.134 24.78V16.6H103.734V25.16C103.734 26.48 104.028 27.4667 104.614 28.12C105.201 28.76 106.021 29.08 107.074 29.08C108.128 29.08 108.948 28.76 109.534 28.12C110.121 27.4667 110.414 26.4867 110.414 25.18V16.6H113.014V24.8C113.014 26.8533 112.508 28.4333 111.494 29.54C110.494 30.6467 109.014 31.2 107.054 31.2ZM121.076 31.2C120.103 31.2 119.31 30.9733 118.696 30.52C118.096 30.0533 117.723 29.4133 117.576 28.6L117.776 28.58V35.1H115.256V20.8H117.716V23.1L117.516 23.06C117.703 22.3 118.13 21.7 118.796 21.26C119.463 20.82 120.276 20.6 121.236 20.6C122.143 20.6 122.93 20.82 123.596 21.26C124.276 21.6867 124.803 22.2933 125.176 23.08C125.55 23.8667 125.736 24.7933 125.736 25.86C125.736 26.94 125.543 27.88 125.156 28.68C124.77 29.48 124.23 30.1 123.536 30.54C122.843 30.98 122.023 31.2 121.076 31.2ZM120.436 29.12C121.25 29.12 121.896 28.84 122.376 28.28C122.856 27.7067 123.096 26.9067 123.096 25.88C123.096 24.8533 122.85 24.06 122.356 23.5C121.876 22.94 121.23 22.66 120.416 22.66C119.616 22.66 118.97 22.9467 118.476 23.52C117.983 24.08 117.736 24.8733 117.736 25.9C117.736 26.9267 117.983 27.72 118.476 28.28C118.97 28.84 119.623 29.12 120.436 29.12Z" fill="#F8FAF9"/>
<defs>
<clipPath id="clip0_280_5698">
<rect width="24" height="24" fill="white" transform="translate(16 12)"/>
</clipPath>
</defs>
</svg>
